<?xml version="1.0" standalone="no"?>
<!DOCTYPE svg PUBLIC "-//W3C//DTD SVG 20010904//EN"
 "http://www.w3.org/TR/2001/REC-SVG-20010904/DTD/svg10.dtd">
<svg version="1.0" xmlns="http://www.w3.org/2000/svg"
 width="772.000000pt" height="772.000000pt" viewBox="0 0 772.000000 772.000000"
 preserveAspectRatio="xMidYMid meet">
<metadata>
Created by potrace 1.11, written by Peter Selinger 2001-2013
</metadata>
<g transform="translate(0.000000,772.000000) scale(0.100000,-0.100000)"
fill="#000000" stroke="none">
<path d="M2005 7713 c-523 -44 -998 -265 -1365 -633 -333 -332 -538 -736 -617
-1215 -17 -104 -18 -220 -18 -2005 0 -1785 1 -1901 18 -2005 79 -479 284 -883
617 -1215 332 -333 736 -538 1215 -617 104 -17 220 -18 2005 -18 1785 0 1901
1 2005 18 479 79 883 284 1215 617 333 332 538 736 617 1215 17 104 18 220 18
2005 0 1785 -1 1901 -18 2005 -79 479 -284 883 -617 1215 -326 327 -714 527
-1189 613 -115 21 -133 21 -1981 23 -1026 0 -1883 -1 -1905 -3z m3840 -1707
c183 -11 383 -65 561 -153 l94 -47 0 -274 0 -274 -27 22 c-196 150 -358 230
-565 276 -110 25 -329 23 -433 -5 -433 -114 -659 -504 -716 -1235 -15 -194 -7
-658 15 -826 80 -613 304 -956 691 -1061 103 -28 340 -31 452 -6 178 40 351
120 492 228 l91 69 0 -274 0 -274 -67 -35 c-355 -184 -833 -225 -1201 -101
-206 69 -397 198 -536 364 -257 306 -399 697 -446 1230 -17 184 -14 597 5 775
93 872 488 1430 1114 1575 89 20 290 39 356 33 17 -1 71 -5 120 -7z m-2618
-1508 c-4 -1461 -4 -1479 -42 -1698 -46 -273 -155 -493 -302 -615 -181 -149
-418 -217 -763 -217 -306 -1 -572 59 -873 196 l-77 35 0 311 0 310 93 -77
c291 -242 599 -358 902 -339 300 19 450 130 519 382 49 184 49 167 53 1477 l4
1227 -460 0 -461 0 0 225 0 225 706 0 705 0 -4 -1442z"/>
</g>
</svg>
